<svg id="visual" viewBox="0 0 900 600" width="900" height="600" xmlns="http://www.w3.org/2000/svg"
  xmlns:xlink="http://www.w3.org/1999/xlink" version="1.1">
  <rect x="0" y="0" width="900" height="600" fill="#E3F2F1"></rect>
  <g transform="translate(0, 0)">
    <path
      d="M432.7 0C426.7 55.6 420.7 111.2 399.7 165.6C378.8 220 342.8 273.2 294.2 294.2C245.5 315.1 184.3 303.8 133.2 321.5C82 339.2 41 385.9 0 432.7L0 0Z"
      fill="#FBAE3C"></path>
  </g>
  <g transform="translate(900, 600)">
    <path
      d="M-378.6 0C-350.7 -23.7 -322.9 -47.4 -309.1 -70.5C-295.2 -93.7 -295.5 -116.3 -290.1 -139.7C-284.7 -163.1 -273.8 -187.3 -259.6 -207C-245.3 -226.7 -227.9 -242 -213.2 -267.4C-198.6 -292.7 -186.8 -328.1 -164.3 -341.1C-141.7 -354 -108.4 -344.6 -79.2 -347.1C-50 -349.6 -25 -364.1 0 -378.6L0 0Z"
      fill="#CADFDE"></path>
  </g>
</svg>